<?xml version="1.0" encoding="utf-8"?>
<!-- Generator: Adobe Illustrator 26.3.1, SVG Export Plug-In . SVG Version: 6.00 Build 0)  -->
<svg version="1.1" id="Layer_1" xmlns="http://www.w3.org/2000/svg" xmlns:xlink="http://www.w3.org/1999/xlink" x="0px" y="0px"
	 viewBox="0 0 30 30" style="enable-background:new 0 0 30 30;" xml:space="preserve">
<style type="text/css">
	.st0{fill:#FFFFFF;}
</style>
<path class="st0" d="M2.6,21c0-0.2,0.1-0.5,0.2-0.6s0.4-0.2,0.6-0.2h18.7c0.2,0,0.5,0.1,0.6,0.2S23,20.8,23,21
	c0,0.2-0.1,0.4-0.2,0.6c-0.2,0.2-0.4,0.2-0.6,0.2H3.5c-0.2,0-0.5-0.1-0.6-0.2C2.7,21.5,2.6,21.3,2.6,21z M5.2,17.9
	c0-0.2,0.1-0.4,0.3-0.6c0.2-0.1,0.3-0.2,0.6-0.2h18.7c0.2,0,0.4,0.1,0.6,0.2s0.2,0.4,0.2,0.6s-0.1,0.4-0.2,0.6
	c-0.2,0.2-0.4,0.2-0.6,0.2H6.1c-0.2,0-0.4-0.1-0.6-0.2C5.3,18.3,5.2,18.1,5.2,17.9z M5.4,15.5c0,0.1,0.1,0.1,0.2,0.1h1.4
	c0.1,0,0.1-0.1,0.2-0.2c0.2-0.5,0.6-0.9,1.1-1.3c0.5-0.3,1-0.5,1.6-0.6l0.6-0.1c0.1,0,0.2-0.1,0.2-0.2l0.1-0.5
	c0.1-1.1,0.6-2,1.4-2.7c0.8-0.7,1.8-1.1,2.8-1.1c1.1,0,2,0.4,2.8,1.1c0.8,0.7,1.3,1.6,1.4,2.7l0.1,0.6c0,0.1,0.1,0.2,0.2,0.2h1.6
	c0.6,0,1.2,0.2,1.8,0.5s0.9,0.8,1.2,1.4c0.1,0.1,0.1,0.2,0.2,0.2h1.4c0.1,0,0.2-0.1,0.1-0.2c-0.3-1-0.9-1.9-1.7-2.5
	c-0.9-0.6-1.9-1-3-1h-0.3c-0.3-1.3-1-2.4-2.1-3.3s-2.3-1.3-3.6-1.3c-1.4,0-2.6,0.4-3.7,1.3s-1.8,2-2.1,3.4c-0.9,0.2-1.6,0.6-2.2,1.2
	S5.6,14.6,5.4,15.5L5.4,15.5C5.4,15.4,5.4,15.5,5.4,15.5z M7,24.1c0-0.2,0.1-0.4,0.3-0.6c0.2-0.1,0.3-0.2,0.6-0.2h18.7
	c0.2,0,0.4,0.1,0.6,0.2c0.2,0.2,0.2,0.4,0.2,0.6c0,0.2-0.1,0.4-0.2,0.6S26.8,25,26.5,25H7.8c-0.2,0-0.4-0.1-0.6-0.3
	C7.1,24.5,7,24.3,7,24.1z"/>
</svg>
