<?xml version="1.0" encoding="utf-8"?>
<!-- Generator: Adobe Illustrator 26.3.1, SVG Export Plug-In . SVG Version: 6.00 Build 0)  -->
<svg version="1.1" id="Layer_1" xmlns="http://www.w3.org/2000/svg" xmlns:xlink="http://www.w3.org/1999/xlink" x="0px" y="0px"
	 viewBox="0 0 30 30" style="enable-background:new 0 0 30 30;" xml:space="preserve">
<style type="text/css">
	.st0{fill:#FFFFFF;}
</style>
<path class="st0" d="M4.6,16.9c0,1.1,0.3,2.1,1,3s1.5,1.5,2.6,1.8l-0.7,1.7c0,0.1,0,0.2,0.1,0.2h2.1l-1,3.8H9l4-5.2c0,0,0-0.1,0-0.1
	s-0.1-0.1-0.1-0.1h-2.2l2.5-4.6c0.1-0.1,0-0.2-0.1-0.2h-2.9c-0.1,0-0.2,0-0.2,0.1l-1.1,2.9c-0.7-0.2-1.3-0.6-1.8-1.2s-0.7-1.3-0.7-2
	c0-0.8,0.3-1.6,0.8-2.2s1.3-1,2.1-1.1l0.5-0.1c0.1,0,0.2-0.1,0.2-0.2l0.1-0.5c0.1-1.1,0.6-2,1.4-2.7c0.8-0.7,1.8-1.1,2.9-1.1
	s2,0.4,2.9,1.1c0.8,0.7,1.3,1.6,1.4,2.7l0.1,0.6c0,0.1,0.1,0.2,0.2,0.2h1.6c0.9,0,1.7,0.3,2.3,0.9s1,1.4,1,2.3
	c0,0.9-0.3,1.6-0.9,2.2s-1.3,1-2.2,1c-0.1,0-0.2,0.1-0.2,0.2v1.4c0,0.1,0.1,0.2,0.2,0.2c0.6,0,1.3-0.2,1.9-0.4s1.1-0.6,1.5-1.1
	s0.8-1,1-1.6c0.2-0.6,0.4-1.2,0.4-1.9c0-0.9-0.2-1.7-0.7-2.5s-1-1.4-1.8-1.8c-0.8-0.4-1.6-0.7-2.5-0.7h-0.3c-0.3-1.3-1-2.4-2.1-3.3
	s-2.3-1.3-3.7-1.3c-1.4,0-2.7,0.4-3.8,1.3s-1.8,2-2.1,3.4c-1.1,0.3-2,0.8-2.7,1.7S4.6,15.8,4.6,16.9z M12.8,26.8
	c0,0.2,0.1,0.3,0.1,0.5c0.1,0.1,0.3,0.3,0.5,0.3c0.1,0,0.2,0,0.2,0c0.1,0,0.2,0,0.4-0.1c0.2-0.1,0.4-0.3,0.4-0.5l0.3-1
	c0.1-0.2,0-0.4-0.1-0.6s-0.3-0.3-0.5-0.4c-0.2-0.1-0.4,0-0.6,0.1s-0.3,0.3-0.4,0.5l-0.3,1C12.8,26.7,12.8,26.8,12.8,26.8z M14.1,22
	c0,0.1,0.1,0.3,0.1,0.4c0.1,0.1,0.2,0.3,0.4,0.3c0.2,0.1,0.4,0.1,0.6,0s0.3-0.3,0.4-0.5l0.3-1c0.1-0.2,0-0.4-0.1-0.6
	c-0.1-0.2-0.3-0.3-0.5-0.4c-0.2-0.1-0.4,0-0.6,0.1s-0.3,0.3-0.4,0.5l-0.2,1C14.1,21.9,14.1,22,14.1,22z M17,23.6
	c0,0.2,0,0.3,0.2,0.5s0.3,0.3,0.5,0.4c0,0,0.1,0,0.1,0c0,0,0.1,0,0.1,0c0.1,0,0.3,0,0.4-0.1c0.2-0.1,0.3-0.3,0.4-0.6l0.2-1
	c0.1-0.2,0-0.5-0.1-0.7c-0.1-0.2-0.3-0.4-0.5-0.4c-0.2-0.1-0.5,0-0.7,0.1c-0.2,0.1-0.3,0.3-0.4,0.5l-0.3,1C17,23.5,17,23.6,17,23.6z
	 M18.3,18.9c0,0.2,0,0.3,0.1,0.5c0.1,0.2,0.3,0.3,0.5,0.4c0.1,0,0.2,0.1,0.3,0.1c0.1,0,0.2,0,0.3-0.1c0.2-0.1,0.4-0.3,0.4-0.6l0.3-1
	c0-0.1,0-0.2,0-0.2c0-0.2,0-0.3-0.2-0.5s-0.3-0.3-0.5-0.3c0,0-0.1,0-0.1,0c-0.1,0-0.1,0-0.1,0c-0.2,0-0.3,0-0.5,0.1
	s-0.3,0.3-0.3,0.5l-0.3,1C18.3,18.7,18.3,18.8,18.3,18.9z"/>
</svg>
