<?xml version="1.0" encoding="utf-8"?>
<!-- Generator: Adobe Illustrator 26.3.1, SVG Export Plug-In . SVG Version: 6.00 Build 0)  -->
<svg version="1.1" id="Layer_1" xmlns="http://www.w3.org/2000/svg" xmlns:xlink="http://www.w3.org/1999/xlink" x="0px" y="0px"
	 viewBox="0 0 30 30" style="enable-background:new 0 0 30 30;" xml:space="preserve">
<style type="text/css">
	.st0{fill:#FFFFFF;}
</style>
<path class="st0" d="M4.6,16.9c0-1.1,0.4-2.2,1.1-3.1s1.6-1.5,2.7-1.7c0.3-1.4,1-2.5,2.1-3.4s2.4-1.3,3.8-1.3c1.4,0,2.6,0.4,3.7,1.3
	c1.1,0.9,1.8,1.9,2.1,3.3h0.3c0.9,0,1.7,0.2,2.5,0.6s1.4,1,1.8,1.8c0.4,0.8,0.7,1.6,0.7,2.5c0,1.3-0.5,2.5-1.4,3.5s-2,1.5-3.4,1.5
	c-0.1,0-0.2-0.1-0.2-0.2v-1.3c0-0.1,0.1-0.2,0.2-0.2c0.9,0,1.6-0.4,2.2-1s0.9-1.4,0.9-2.3s-0.3-1.6-1-2.3c-0.6-0.6-1.4-1-2.3-1h-1.6
	c-0.1,0-0.2-0.1-0.2-0.2l-0.1-0.6c-0.1-1.1-0.6-2-1.4-2.7c-0.8-0.7-1.8-1.1-2.9-1.1c-1.1,0-2.1,0.4-2.9,1.1
	c-0.8,0.7-1.3,1.6-1.4,2.7L10,13.5c0,0.1-0.1,0.2-0.2,0.2l-0.5,0c-0.8,0-1.5,0.4-2.1,1S6.3,16,6.3,16.9c0,0.9,0.3,1.6,0.9,2.3
	s1.3,1,2.2,1c0.1,0,0.2,0.1,0.2,0.2v1.3c0,0.1-0.1,0.2-0.2,0.2c-1.3-0.1-2.5-0.6-3.4-1.5S4.6,18.2,4.6,16.9z M10.6,17.8
	c0-0.2,0.1-0.6,0.4-1c0.2-0.4,0.5-0.8,0.7-1c0.2-0.2,0.3-0.4,0.4-0.4l0.4,0.4c0.3,0.3,0.5,0.6,0.7,1c0.2,0.4,0.3,0.7,0.3,1
	c0,0.4-0.1,0.7-0.4,1c-0.3,0.3-0.6,0.4-1,0.4c-0.4,0-0.7-0.1-1-0.4C10.7,18.5,10.6,18.2,10.6,17.8z M13.6,21.8c0-0.3,0.1-0.6,0.2-1
	s0.4-0.7,0.6-1c0.2-0.3,0.4-0.5,0.7-0.8c0.3-0.3,0.5-0.5,0.6-0.6c0.1-0.1,0.1-0.1,0.2-0.2l0.2,0.2c0.4,0.3,0.8,0.8,1.3,1.5
	c0.2,0.3,0.4,0.7,0.6,1s0.2,0.7,0.2,1c0,0.6-0.2,1.2-0.7,1.6s-1,0.7-1.7,0.7c-0.6,0-1.2-0.2-1.6-0.7C13.8,23,13.6,22.4,13.6,21.8z
	 M15,15.1c0-0.4,0.3-0.9,1-1.6l0.2,0.2c0.2,0.2,0.3,0.4,0.5,0.7c0.1,0.3,0.2,0.5,0.2,0.6c0,0.3-0.1,0.5-0.3,0.7
	c-0.2,0.2-0.4,0.3-0.7,0.3c-0.3,0-0.5-0.1-0.7-0.3C15.1,15.6,15,15.4,15,15.1z"/>
</svg>
