<?xml version="1.0" encoding="utf-8"?>
<!-- Generator: Adobe Illustrator 26.3.1, SVG Export Plug-In . SVG Version: 6.00 Build 0)  -->
<svg version="1.1" id="Layer_1" xmlns="http://www.w3.org/2000/svg" xmlns:xlink="http://www.w3.org/1999/xlink" x="0px" y="0px"
	 viewBox="0 0 30 30" style="enable-background:new 0 0 30 30;" xml:space="preserve">
<style type="text/css">
	.st0{fill:#FFFFFF;}
</style>
<path class="st0" d="M7.9,14.5c0-1,0.2-1.9,0.6-2.8s0.9-1.6,1.5-2.3s1.4-1.1,2.3-1.5c0.9-0.4,1.8-0.6,2.8-0.6h1.1
	c0.2,0,0.2,0.1,0.2,0.3l0,0.9c0,1.3,0.5,2.4,1.4,3.2c0.9,0.9,1.9,1.4,3.2,1.4l0.8,0.1c0.2,0,0.2,0.1,0.2,0.2v1
	c0,1.3-0.3,2.5-0.9,3.6c-0.6,1.1-1.5,2-2.6,2.6c-1.1,0.6-2.3,1-3.6,1c-1,0-1.9-0.2-2.8-0.6s-1.6-0.9-2.3-1.5
	c-0.6-0.6-1.1-1.4-1.5-2.3C8.1,16.4,7.9,15.4,7.9,14.5z M9.7,14.5c0,0.8,0.1,1.5,0.4,2.2c0.3,0.7,0.7,1.2,1.2,1.7
	c0.5,0.5,1.1,0.8,1.7,1.1c0.6,0.3,1.3,0.4,1.9,0.4c0.6,0,1.2-0.1,1.8-0.3s1.1-0.5,1.6-1s0.9-0.9,1.3-1.6c0.4-0.6,0.6-1.3,0.7-2.1
	c-1.6-0.3-2.9-1-3.9-2.1S15,10.5,14.8,9c-1,0.1-1.8,0.3-2.6,0.9c-0.8,0.5-1.4,1.2-1.8,2C10,12.7,9.7,13.6,9.7,14.5z"/>
</svg>
