<?xml version="1.0" encoding="utf-8"?>
<!-- Generator: Adobe Illustrator 26.3.1, SVG Export Plug-In . SVG Version: 6.00 Build 0)  -->
<svg version="1.1" id="Layer_1" xmlns="http://www.w3.org/2000/svg" xmlns:xlink="http://www.w3.org/1999/xlink" x="0px" y="0px"
	 viewBox="0 0 30 30" style="enable-background:new 0 0 30 30;" xml:space="preserve">
<style type="text/css">
	.st0{fill:#FFFFFF;}
</style>
<path class="st0" d="M4.3,16.9c0,0.9,0.2,1.7,0.7,2.5s1,1.4,1.8,1.8s1.6,0.7,2.5,0.7H20c0.9,0,1.7-0.2,2.5-0.7s1.4-1,1.8-1.8
	c0.4-0.8,0.7-1.6,0.7-2.5c0-0.6-0.1-1.3-0.4-2c0.8-0.9,1.1-2,1.1-3.3c0-0.9-0.2-1.8-0.7-2.6c-0.5-0.8-1.1-1.4-1.9-1.9
	s-1.7-0.7-2.6-0.7c-1.5,0-2.8,0.6-3.9,1.7c-0.8-0.4-1.7-0.7-2.7-0.7c-1.4,0-2.6,0.4-3.7,1.3s-1.8,2-2.1,3.3c-1.1,0.2-2,0.8-2.7,1.7
	C4.7,14.7,4.3,15.7,4.3,16.9z M6,16.9c0-0.8,0.3-1.6,0.8-2.2c0.6-0.6,1.3-1,2.1-1.1l0.7,0l0.1-0.7c0.1-1.1,0.6-2,1.4-2.7
	c0.8-0.7,1.7-1.1,2.8-1.1c1.1,0,2.1,0.4,2.9,1.1c0.8,0.7,1.3,1.6,1.4,2.7l0.1,0.8H20c0.9,0,1.6,0.3,2.3,0.9s1,1.4,1,2.3
	c0,0.9-0.3,1.7-1,2.3s-1.4,1-2.3,1H9.2c-0.9,0-1.6-0.3-2.3-1C6.3,18.5,6,17.8,6,16.9z M18,9.1c0.7-0.7,1.5-1,2.4-1
	c1,0,1.8,0.3,2.5,1c0.7,0.7,1,1.5,1,2.5c0,0.6-0.2,1.2-0.5,1.8c-1-1-2.1-1.5-3.5-1.5h-0.3C19.5,10.9,18.9,9.9,18,9.1z"/>
</svg>
