<?xml version="1.0" encoding="utf-8"?>
<!-- Generator: Adobe Illustrator 26.3.1, SVG Export Plug-In . SVG Version: 6.00 Build 0)  -->
<svg version="1.1" id="Layer_1" xmlns="http://www.w3.org/2000/svg" xmlns:xlink="http://www.w3.org/1999/xlink" x="0px" y="0px"
	 viewBox="0 0 30 30" style="enable-background:new 0 0 30 30;" xml:space="preserve">
<style type="text/css">
	.st0{fill:#FFFFFF;}
</style>
<path class="st0" d="M0,18.7c0-1.4,0.4-2.6,1.2-3.5c0.8-0.9,1.9-1.8,3.2-2c0.4-1.6,1.1-2.8,2.4-3.9c1.2-1.1,2.7-1.5,4.3-1.5
	s3,0.5,4.3,1.5c1.2,0.9,2,2.3,2.4,3.8h0.4c1.6,0,3,0.5,4.1,1.6c1.1,1.1,1.6,2.4,1.6,4.1s-0.5,3-1.6,4.1c-1.1,1.1-2.4,1.6-4.1,1.6
	H5.8c-0.8,0-1.5-0.1-2.3-0.4c-0.8-0.3-1.4-0.7-1.9-1.2s-0.9-1.1-1.2-1.9S0,19.5,0,18.7z M1.9,18.7c0,1.1,0.4,1.9,1.1,2.7
	c0.7,0.8,1.6,1.1,2.7,1.1h12.6c1.1,0,1.9-0.4,2.7-1.1c0.8-0.7,1.1-1.6,1.1-2.7s-0.4-1.9-1.1-2.7c-0.7-0.7-1.6-1.1-2.7-1.1h-1.9
	c-0.1,0-0.1-0.1-0.1-0.1l-0.1-0.7c-0.1-1.2-0.7-2.3-1.6-3.1c-0.9-0.8-2-1.2-3.2-1.2S8.8,10.1,7.8,11c-0.9,0.8-1.5,1.9-1.6,3.1
	l-0.1,0.5c0,0.1-0.1,0.1-0.3,0.1l-0.5,0.1c-0.9,0.1-1.8,0.5-2.4,1.2C2.3,16.8,1.9,17.7,1.9,18.7z M13.9,6.9C13.8,7,13.8,7,14.1,7.2
	c0.5,0.3,1.1,0.5,1.5,0.8c0.1,0,0.3,0,0.3,0c0.8-0.8,1.8-1.2,2.8-1.2c1.1,0,2,0.4,2.8,1.1c0.8,0.7,1.2,1.6,1.4,2.7l0.1,0.8h1.9
	c0.8,0,1.6,0.3,2.3,0.9c0.7,0.7,0.9,1.4,0.9,2.3c0,0.8-0.3,1.5-0.8,2.2c-0.5,0.7-1.2,0.9-2,1.1c-0.1,0-0.1,0-0.1,0.3v1.5
	c0,0.1,0,0.3,0.1,0.3c1.4-0.1,2.6-0.7,3.4-1.6c0.8-0.9,1.4-2.2,1.4-3.5c0-1.5-0.5-2.7-1.5-3.6c-1.1-1.1-2.2-1.5-3.6-1.5h-0.1
	c-0.4-1.4-1.1-2.4-2.2-3.4c-1.1-0.9-2.4-1.4-3.8-1.4C16.8,4.7,15.1,5.4,13.9,6.9z"/>
</svg>
