<?xml version="1.0" encoding="utf-8"?>
<!-- Generator: Adobe Illustrator 26.3.1, SVG Export Plug-In . SVG Version: 6.00 Build 0)  -->
<svg version="1.1" id="Layer_1" xmlns="http://www.w3.org/2000/svg" xmlns:xlink="http://www.w3.org/1999/xlink" x="0px" y="0px"
	 viewBox="0 0 30 30" style="enable-background:new 0 0 30 30;" xml:space="preserve">
<style type="text/css">
	.st0{fill:#FFFFFF;}
</style>
<path class="st0" d="M0,20.4c0-0.2,0.1-0.6,0.2-0.7s0.5-0.2,0.7-0.2h22.6c0.2,0,0.6,0.1,0.7,0.2s0.4,0.5,0.4,0.7
	c0,0.2-0.1,0.5-0.2,0.7c-0.2,0.2-0.5,0.2-0.7,0.2H1.1c-0.2,0-0.6-0.1-0.7-0.2C0.1,21,0,20.7,0,20.4z M3.1,16.6
	c0-0.2,0.1-0.5,0.4-0.7c0.2-0.1,0.4-0.2,0.7-0.2h22.6c0.2,0,0.5,0.1,0.7,0.2c0.2,0.1,0.2,0.5,0.2,0.7c0,0.2-0.1,0.5-0.2,0.7
	c-0.2,0.2-0.5,0.2-0.7,0.2H4.2c-0.2,0-0.5-0.1-0.7-0.2C3.3,17.1,3.1,16.8,3.1,16.6z M3.4,13.7c0,0.1,0.1,0.1,0.2,0.1h1.7
	c0.1,0,0.1-0.1,0.2-0.2C5.8,13,6.3,12.5,6.9,12c0.6-0.4,1.2-0.6,1.9-0.7l0.7-0.1c0.1,0,0.2-0.1,0.2-0.2l0.1-0.6
	C10,9,10.6,7.9,11.6,7s2.2-1.3,3.4-1.3c1.3,0,2.4,0.5,3.4,1.3c1,0.8,1.6,1.9,1.7,3.3l0.1,0.7c0,0.1,0.1,0.2,0.2,0.2h1.9
	c0.7,0,1.5,0.2,2.2,0.6s1.1,1,1.5,1.7c0.1,0.1,0.1,0.2,0.2,0.2h1.7c0.1,0,0.2-0.1,0.1-0.2c-0.4-1.2-1.1-2.3-2.1-3
	c-1.1-0.7-2.3-1.2-3.6-1.2H22c-0.4-1.6-1.2-2.9-2.5-4c-1.3-1.1-2.8-1.6-4.4-1.6c-1.7,0-3.1,0.5-4.5,1.6S8.5,7.8,8.1,9.5
	C7,9.7,6.2,10.2,5.4,10.9S3.6,12.6,3.4,13.7L3.4,13.7C3.4,13.6,3.4,13.7,3.4,13.7z M5.3,24.1c0-0.2,0.1-0.5,0.4-0.7
	c0.2-0.1,0.4-0.2,0.7-0.2H29c0.2,0,0.5,0.1,0.7,0.2c0.2,0.2,0.2,0.5,0.2,0.7s-0.1,0.5-0.2,0.7c-0.1,0.2-0.5,0.4-0.8,0.4H6.3
	c-0.2,0-0.5-0.1-0.7-0.4C5.4,24.6,5.3,24.3,5.3,24.1z"/>
</svg>
