<?xml version="1.0" encoding="utf-8"?>
<!-- Generator: Adobe Illustrator 26.3.1, SVG Export Plug-In . SVG Version: 6.00 Build 0)  -->
<svg version="1.1" id="Layer_1" xmlns="http://www.w3.org/2000/svg" xmlns:xlink="http://www.w3.org/1999/xlink" x="0px" y="0px"
	 viewBox="0 0 30 30" style="enable-background:new 0 0 30 30;" xml:space="preserve">
<style type="text/css">
	.st0{fill:#FFFFFF;}
</style>
<path class="st0" d="M0,14.6c0,1.6,0.4,3,1.4,4.3s2.1,2.1,3.7,2.6l-1,2.4c0,0.1,0,0.3,0.1,0.3h3l-1.4,5.4h0.4l5.7-7.4V22l-0.1-0.1
	H8.7l3.6-6.5c0.1-0.1,0-0.3-0.1-0.3H8c-0.1,0-0.3,0-0.3,0.1l-1.6,4.1c-1-0.3-1.9-0.9-2.6-1.7s-1-1.9-1-2.8c0-1.1,0.4-2.3,1.1-3.1
	c0.7-0.9,1.9-1.4,3-1.6l0.7-0.1c0.1,0,0.3-0.1,0.3-0.3l0.1-0.7C8,7.3,8.7,6,9.8,5c1.1-1,2.6-1.6,4.1-1.6S16.8,4,18.1,5
	c1.1,1,1.9,2.3,2,3.8l0.1,0.9c0,0.1,0.1,0.3,0.3,0.3h2.3c1.3,0,2.4,0.4,3.3,1.3s1.4,2,1.4,3.3s-0.4,2.3-1.3,3.1
	c-0.9,0.9-1.9,1.4-3.1,1.4c-0.1,0-0.3,0.1-0.3,0.3v2c0,0.1,0.1,0.3,0.3,0.3c0.9,0,1.9-0.3,2.7-0.6c0.9-0.3,1.6-0.9,2.1-1.6
	s1.1-1.4,1.4-2.3c0.3-0.9,0.6-1.7,0.6-2.7c0-1.3-0.3-2.4-1-3.6c-0.7-1.1-1.4-2-2.6-2.6c-1.1-0.6-2.3-1-3.6-1h-0.4
	c-0.4-1.9-1.4-3.4-3-4.7c-1.6-1.3-3.3-1.9-5.3-1.9s-3.8,0.6-5.4,1.9s-2.6,2.8-3,4.8C4.1,8,2.8,8.7,1.9,10S0,13,0,14.6z M11.7,28.6
	c0,0.3,0.1,0.4,0.1,0.7c0.1,0.1,0.4,0.4,0.7,0.4c0.1,0,0.3,0,0.3,0c0.1,0,0.3,0,0.6-0.1s0.6-0.4,0.6-0.7l0.4-1.4
	c0.1-0.3,0-0.6-0.1-0.9c-0.1-0.3-0.4-0.4-0.7-0.6c-0.3-0.1-0.6,0-0.9,0.1c-0.3,0.1-0.4,0.4-0.6,0.7l-0.4,1.4
	C11.7,28.5,11.7,28.6,11.7,28.6z M13.5,21.8c0,0.1,0.1,0.4,0.1,0.6c0.1,0.1,0.3,0.4,0.6,0.4c0.3,0.1,0.6,0.1,0.9,0
	c0.3-0.1,0.4-0.4,0.6-0.7l0.4-1.4c0.1-0.3,0-0.6-0.1-0.9c-0.1-0.3-0.4-0.4-0.7-0.6c-0.3-0.1-0.6,0-0.9,0.1s-0.4,0.4-0.6,0.7
	l-0.3,1.4C13.5,21.7,13.5,21.8,13.5,21.8z M17.6,24.1c0,0.3,0,0.4,0.3,0.7c0.3,0.3,0.4,0.4,0.7,0.6h0.1h0.1c0.1,0,0.4,0,0.6-0.1
	c0.3-0.1,0.4-0.4,0.6-0.9l0.3-1.4c0.1-0.3,0-0.7-0.1-1c-0.1-0.3-0.4-0.6-0.7-0.6c-0.3-0.1-0.7,0-1,0.1c-0.3,0.1-0.4,0.4-0.6,0.7
	l-0.4,1.4C17.6,23.9,17.6,24.1,17.6,24.1z M19.5,17.4c0,0.3,0,0.4,0.1,0.7c0.1,0.3,0.4,0.4,0.7,0.6c0.1,0,0.3,0.1,0.4,0.1
	c0.1,0,0.3,0,0.4-0.1c0.3-0.1,0.6-0.4,0.6-0.9l0.4-1.4c0-0.1,0-0.3,0-0.3c0-0.3,0-0.4-0.3-0.7c-0.3-0.3-0.4-0.4-0.7-0.4h-0.1
	c-0.1,0-0.1,0-0.1,0c-0.3,0-0.4,0-0.7,0.1c-0.3,0.1-0.4,0.4-0.4,0.7l-0.4,1.4C19.5,17.1,19.5,17.3,19.5,17.4z"/>
</svg>
