<?xml version="1.0" encoding="utf-8"?>
<!-- Generator: Adobe Illustrator 26.3.1, SVG Export Plug-In . SVG Version: 6.00 Build 0)  -->
<svg version="1.1" id="Layer_1" xmlns="http://www.w3.org/2000/svg" xmlns:xlink="http://www.w3.org/1999/xlink" x="0px" y="0px"
	 viewBox="0 0 30 30" style="enable-background:new 0 0 30 30;" xml:space="preserve">
<style type="text/css">
	.st0{fill:#FFFFFF;}
</style>
<path class="st0" d="M4.7,17c0,1.3,0.5,2.5,1.4,3.4c0.9,1,2.1,1.5,3.4,1.5c0.1,0,0.2-0.1,0.2-0.2v-1.3c0-0.1-0.1-0.2-0.2-0.2
	c-0.8,0-1.6-0.4-2.2-1s-0.9-1.4-0.9-2.2c0-0.8,0.3-1.6,0.8-2.2c0.6-0.6,1.3-1,2.1-1l0.5-0.1c0.1,0,0.2-0.1,0.2-0.2l0.1-0.5
	c0.1-1.1,0.6-2,1.4-2.8s1.8-1.1,2.9-1.1c1.1,0,2,0.4,2.8,1.1c0.8,0.7,1.3,1.6,1.4,2.7l0.1,0.6c0,0.1,0.1,0.2,0.2,0.2h1.6
	c0.9,0,1.7,0.3,2.3,1c0.6,0.6,1,1.4,1,2.3c0,0.8-0.3,1.6-0.9,2.2c-0.6,0.6-1.3,1-2.2,1c-0.1,0-0.2,0.1-0.2,0.2v1.3
	c0,0.1,0.1,0.2,0.2,0.2c1.3,0,2.5-0.5,3.4-1.5s1.4-2.1,1.4-3.4c0-0.9-0.2-1.7-0.7-2.5c-0.4-0.8-1-1.4-1.8-1.8
	c-0.8-0.4-1.6-0.7-2.5-0.7h-0.3c-0.3-1.3-1-2.4-2.1-3.3c-1.1-0.8-2.3-1.3-3.7-1.3c-1.4,0-2.7,0.4-3.8,1.3s-1.8,2-2.1,3.4
	c-1.1,0.3-2,0.9-2.8,1.8S4.7,15.8,4.7,17z M10.1,24c0,0.2,0.1,0.3,0.2,0.5s0.3,0.3,0.5,0.4c0.2,0.1,0.4,0.1,0.6,0
	c0.2-0.1,0.3-0.3,0.4-0.6l0.1-0.6c0.1-0.2,0-0.4-0.1-0.6s-0.3-0.3-0.5-0.4c-0.2-0.1-0.4,0-0.6,0.1s-0.3,0.3-0.4,0.5l-0.1,0.6
	C10.1,23.8,10.1,23.9,10.1,24z M10.8,21.1c0,0.2,0.1,0.4,0.2,0.6c0.2,0.2,0.3,0.2,0.6,0.2c0.2,0,0.4-0.1,0.6-0.2
	c0.2-0.2,0.2-0.4,0.2-0.6c0-0.2-0.1-0.4-0.2-0.6s-0.4-0.2-0.6-0.2c-0.2,0-0.4,0.1-0.6,0.2C10.9,20.6,10.8,20.9,10.8,21.1z
	 M11.4,18.8c0,0.2,0,0.3,0.1,0.5c0.1,0.1,0.3,0.2,0.5,0.3c0.2,0.1,0.4,0,0.6-0.1s0.3-0.3,0.4-0.5l0.3-0.9c0.1-0.2,0.1-0.5-0.1-0.6
	s-0.3-0.3-0.5-0.4c-0.2-0.1-0.4,0-0.6,0.1c-0.2,0.1-0.3,0.3-0.4,0.5l-0.2,0.9c0,0,0,0.1,0,0.1C11.4,18.7,11.4,18.8,11.4,18.8z
	 M12.6,27.1c0,0.2,0.1,0.3,0.1,0.5c0.1,0.2,0.3,0.3,0.5,0.3c0.1,0,0.2,0,0.2,0c0.4,0,0.7-0.2,0.8-0.6l0.1-0.6c0.1-0.3,0-0.5-0.1-0.7
	c-0.1-0.2-0.3-0.3-0.5-0.4c-0.2-0.1-0.4,0-0.6,0.1c-0.2,0.1-0.3,0.3-0.4,0.5l-0.1,0.6C12.6,27,12.6,27,12.6,27.1z M13.4,24.2
	c0,0.2,0.1,0.4,0.2,0.6c0.2,0.2,0.4,0.2,0.6,0.2c0.2,0,0.4-0.1,0.6-0.2c0.2-0.2,0.2-0.4,0.2-0.6c0-0.2-0.1-0.4-0.2-0.6
	c-0.2-0.2-0.4-0.2-0.6-0.2s-0.4,0.1-0.6,0.2S13.4,24,13.4,24.2z M14,21.9c0,0.1,0,0.3,0.1,0.5s0.2,0.3,0.4,0.3
	c0.2,0.1,0.4,0,0.6-0.1s0.3-0.3,0.4-0.6l0.3-0.9c0.1-0.2,0.1-0.4-0.1-0.6c-0.1-0.2-0.3-0.3-0.5-0.4c-0.2-0.1-0.4,0-0.6,0.1
	s-0.3,0.3-0.4,0.5L14,21.7C14,21.7,14,21.8,14,21.9z M16.8,24.1c0,0.2,0,0.3,0.1,0.5s0.3,0.3,0.5,0.3c0,0,0.1,0,0.1,0s0.1,0,0.1,0
	c0.4,0,0.7-0.2,0.8-0.7l0.1-0.6c0.1-0.2,0-0.4-0.1-0.6c-0.1-0.2-0.3-0.3-0.5-0.4c-0.2-0.1-0.5,0-0.7,0.1s-0.3,0.3-0.4,0.5l-0.1,0.6
	c0,0,0,0.1,0,0.1S16.8,24,16.8,24.1z M17.5,21.1c0,0.2,0.1,0.4,0.2,0.6c0.1,0.2,0.3,0.2,0.6,0.2c0.2,0,0.4-0.1,0.6-0.2
	s0.2-0.4,0.2-0.6c0-0.2-0.1-0.4-0.2-0.6s-0.4-0.2-0.6-0.2s-0.4,0.1-0.6,0.2C17.6,20.7,17.5,20.9,17.5,21.1z M18.1,18.8
	c0,0.2,0,0.3,0.2,0.5s0.3,0.3,0.5,0.3c0,0,0.1,0,0.1,0s0.1,0,0.1,0c0.1,0,0.2,0,0.4-0.1c0.2-0.1,0.4-0.3,0.4-0.5l0.2-0.9
	c0.1-0.2,0-0.4-0.1-0.6c-0.1-0.2-0.3-0.3-0.5-0.4s-0.4,0-0.6,0.1c-0.2,0.1-0.3,0.3-0.4,0.5l-0.3,0.9C18.1,18.6,18.1,18.6,18.1,18.8
	C18.1,18.7,18.1,18.8,18.1,18.8z"/>
</svg>
