<?xml version="1.0" encoding="utf-8"?>
<!-- Generator: Adobe Illustrator 26.3.1, SVG Export Plug-In . SVG Version: 6.00 Build 0)  -->
<svg version="1.1" id="Layer_1" xmlns="http://www.w3.org/2000/svg" xmlns:xlink="http://www.w3.org/1999/xlink" x="0px" y="0px"
	 viewBox="0 0 30 30" style="enable-background:new 0 0 30 30;" xml:space="preserve">
<style type="text/css">
	.st0{fill:#FFFFFF;}
</style>
<path class="st0" d="M0,14.4c0-1.7,0.4-3.1,1.6-4.4s2.3-2.1,3.8-2.6c0.4-2,1.4-3.6,3-4.8s3.3-1.9,5.4-1.9c2,0,3.7,0.6,5.3,1.9
	c1.6,1.3,2.6,2.7,3,4.7h0.4c1.3,0,2.4,0.3,3.6,1s2,1.4,2.6,2.6s1,2.3,1,3.6c0,1.9-0.7,3.6-2,4.8c-1.3,1.4-2.9,2.1-4.8,2.1
	c-0.1,0-0.3-0.1-0.3-0.3v-1.9c0-0.1,0.1-0.3,0.3-0.3c1.3,0,2.3-0.6,3.1-1.4c0.9-0.9,1.3-2,1.3-3.1c0-1.3-0.4-2.3-1.4-3.3
	c-1-1-2-1.4-3.3-1.4h-2.3c-0.1,0-0.3-0.1-0.3-0.3l-0.1-0.9c-0.1-1.6-0.9-2.9-2-3.8c-1.1-1-2.6-1.6-4.1-1.6c-1.6,0-3,0.6-4.1,1.6
	c-1.1,1-1.9,2.3-2,4l0.1,0.7c0,0.1-0.1,0.3-0.3,0.3L6.7,9.9c-1.1,0.1-2.1,0.6-3,1.4c-0.9,0.9-1.1,2-1.1,3.1c0,1.3,0.4,2.3,1.3,3.1
	S5.7,19,7,19c0.1,0,0.3,0.1,0.3,0.3v1.9c0,0.1-0.1,0.3-0.3,0.3c-1.9,0-3.6-0.7-4.8-2.1C0.7,17.9,0,16.3,0,14.4z M7.8,25.3
	c0-0.3,0.1-0.6,0.3-0.9c0.3-0.1,0.6-0.3,0.9-0.3c0.3,0,0.6,0.1,0.9,0.3c0.3,0.1,0.3,0.6,0.3,0.9c0,0.3-0.1,0.6-0.3,0.9
	c-0.1,0.3-0.6,0.3-0.9,0.3c-0.3,0-0.6-0.1-0.9-0.3C8,26,7.8,25.7,7.8,25.3z M9.1,20.1c0-0.3,0.1-0.6,0.3-0.9S10,19,10.3,19
	c0.3,0,0.6,0.1,0.9,0.3c0.3,0.1,0.3,0.6,0.3,0.9s-0.1,0.6-0.3,0.9c-0.3,0.3-0.6,0.3-0.9,0.3c-0.3,0-0.6-0.1-0.9-0.3
	C9.3,20.8,9.1,20.6,9.1,20.1z M11.8,28.1c0-0.3,0.1-0.6,0.3-0.9C12.4,27,12.7,27,13,27c0.3,0,0.6,0.1,0.9,0.3
	c0.3,0.1,0.3,0.6,0.3,0.9S14,28.7,13.8,29s-0.6,0.3-0.9,0.3c-0.3,0-0.6-0.1-0.9-0.3C12,28.7,11.8,28.4,11.8,28.1z M13.1,23
	c0-0.3,0.1-0.6,0.3-0.9c0.3-0.3,0.6-0.3,0.9-0.3c0.3,0,0.6,0.1,0.9,0.3c0.3,0.1,0.3,0.6,0.3,0.9c0,0.3-0.1,0.6-0.3,0.9
	c-0.1,0.3-0.6,0.3-0.9,0.3c-0.3,0-0.6-0.1-0.9-0.3C13.3,23.6,13.1,23.3,13.1,23z M13.7,17.7c0-0.3,0.1-0.6,0.3-0.9
	c0.3-0.3,0.6-0.3,0.9-0.3c0.3,0,0.6,0.1,0.9,0.3C16,17,16,17.4,16,17.7c0,0.3-0.1,0.6-0.3,0.9c-0.1,0.3-0.6,0.3-0.9,0.3
	c-0.3,0-0.6-0.1-0.9-0.3C13.8,18.4,13.7,18.1,13.7,17.7z M17.1,25.3c0-0.3,0.1-0.6,0.3-0.9c0.3-0.1,0.6-0.3,0.9-0.3s0.6,0.1,0.9,0.3
	c0.3,0.3,0.3,0.6,0.3,0.9c0,0.3-0.1,0.6-0.3,0.9c-0.3,0.3-0.6,0.3-0.9,0.3s-0.6-0.1-0.9-0.3C17.1,26,17.1,25.7,17.1,25.3z
	 M18.2,20.1c0-0.3,0.1-0.6,0.3-0.9c0.1-0.3,0.6-0.3,0.9-0.3s0.6,0.1,0.9,0.3s0.3,0.6,0.3,0.9s-0.1,0.6-0.3,0.9
	c-0.3,0.3-0.6,0.3-0.9,0.3s-0.6-0.1-0.9-0.3C18.4,20.8,18.2,20.4,18.2,20.1z"/>
</svg>
