<?xml version="1.0" encoding="utf-8"?>
<!-- Generator: Adobe Illustrator 26.3.1, SVG Export Plug-In . SVG Version: 6.00 Build 0)  -->
<svg version="1.1" id="Layer_1" xmlns="http://www.w3.org/2000/svg" xmlns:xlink="http://www.w3.org/1999/xlink" x="0px" y="0px"
	 viewBox="0 0 30 30" style="enable-background:new 0 0 30 30;" xml:space="preserve">
<style type="text/css">
	.st0{fill:#FFFFFF;}
</style>
<path class="st0" d="M0,16.4c0-1.6,0.6-3.2,1.6-4.5s2.3-2.2,3.9-2.5c0.4-2,1.4-3.6,3-4.9S12,2.7,14,2.7s3.8,0.6,5.3,1.9
	s2.6,2.7,3,4.8h0.4c1.3,0,2.5,0.3,3.6,0.9c1.2,0.6,2,1.4,2.6,2.6c0.6,1.2,1,2.3,1,3.6c0,1.9-0.7,3.6-2,5c-1.3,1.4-2.9,2.2-4.9,2.2
	c-0.1,0-0.3-0.1-0.3-0.3v-1.9c0-0.1,0.1-0.3,0.3-0.3c1.3,0,2.3-0.6,3.2-1.4s1.3-2,1.3-3.3s-0.4-2.3-1.4-3.3c-0.9-0.9-2-1.4-3.3-1.4
	h-2.3c-0.1,0-0.3-0.1-0.3-0.3L20,10.5c-0.1-1.6-0.9-2.9-2-3.9S15.4,5,13.8,5c-1.6,0-3,0.6-4.2,1.6c-1.2,1-1.9,2.3-2,3.9l0.1,1
	c0,0.1-0.1,0.3-0.3,0.3H6.8c-1.2,0-2.2,0.6-3,1.4c-0.9,0.9-1.3,1.9-1.3,3.2s0.4,2.3,1.3,3.3c0.9,1,1.9,1.4,3.2,1.4
	c0.1,0,0.3,0.1,0.3,0.3v1.9c0,0.1-0.1,0.3-0.3,0.3C5,23.5,3.3,22.7,2,21.4C0.7,20.1,0,18.3,0,16.4z M8.7,17.7c0-0.3,0.1-0.9,0.6-1.4
	c0.3-0.6,0.7-1.2,1-1.4c0.3-0.3,0.4-0.6,0.6-0.6l0.6,0.6c0.4,0.4,0.7,0.9,1,1.4c0.3,0.6,0.4,1,0.4,1.4c0,0.6-0.1,1-0.6,1.4
	c-0.4,0.4-0.9,0.6-1.4,0.6s-1-0.1-1.4-0.6C8.8,18.7,8.7,18.3,8.7,17.7z M13,23.5c0-0.4,0.1-0.9,0.3-1.4c0.1-0.6,0.6-1,0.9-1.4
	c0.3-0.4,0.6-0.7,1-1.2s0.7-0.7,0.9-0.9s0.1-0.1,0.3-0.3l0.3,0.3c0.6,0.4,1.2,1.2,1.9,2.2c0.3,0.4,0.6,1,0.9,1.4
	c0.3,0.4,0.3,1,0.3,1.4c0,0.9-0.3,1.7-1,2.3c-0.7,0.6-1.4,1-2.5,1c-0.9,0-1.7-0.3-2.3-1C13.3,25.2,13,24.3,13,23.5z M15,13.8
	c0-0.6,0.4-1.3,1.4-2.3l0.3,0.3c0.3,0.3,0.4,0.6,0.7,1c0.1,0.4,0.3,0.7,0.3,0.9c0,0.4-0.1,0.7-0.4,1c-0.3,0.3-0.6,0.4-1,0.4
	c-0.4,0-0.7-0.1-1-0.4C15.1,14.5,15,14.2,15,13.8z"/>
</svg>
