<?xml version="1.0" encoding="utf-8"?>
<!-- Generator: Adobe Illustrator 26.3.1, SVG Export Plug-In . SVG Version: 6.00 Build 0)  -->
<svg version="1.1" id="Layer_1" xmlns="http://www.w3.org/2000/svg" xmlns:xlink="http://www.w3.org/1999/xlink" x="0px" y="0px"
	 viewBox="0 0 30 30" style="enable-background:new 0 0 30 30;" xml:space="preserve">
<style type="text/css">
	.st0{fill:#FFFFFF;}
</style>
<path class="st0" d="M0.6,13.3c0,1.8,0.7,3.5,1.9,4.7C3.8,19.3,5.5,20,7.3,20c0.1,0,0.3-0.1,0.3-0.3V18c0-0.1-0.1-0.3-0.3-0.3
	c-1.1,0-2.2-0.6-3-1.4c-0.8-0.8-1.2-1.9-1.2-3c0-1.1,0.4-2.2,1.1-3C4.9,9.4,5.9,8.8,7,8.8l0.7-0.1C7.8,8.7,8,8.6,8,8.4l0.1-0.7
	C8.2,6.2,8.9,5,10,3.9s2.5-1.5,4-1.5c1.5,0,2.8,0.6,3.9,1.5c1.1,1,1.8,2.2,1.9,3.7L20,8.4c0,0.1,0.1,0.3,0.3,0.3h2.2
	c1.2,0,2.3,0.4,3.2,1.4c0.8,0.8,1.4,1.9,1.4,3.2c0,1.1-0.4,2.2-1.2,3c-0.8,0.8-1.8,1.4-3,1.4c-0.1,0-0.3,0.1-0.3,0.3v1.8
	c0,0.1,0.1,0.3,0.3,0.3c1.8,0,3.5-0.7,4.7-2.1c1.2-1.4,1.9-2.9,1.9-4.7c0-1.2-0.3-2.3-1-3.5c-0.6-1.1-1.4-1.9-2.5-2.5
	c-1.1-0.6-2.2-1-3.5-1H22c-0.4-1.8-1.4-3.3-2.9-4.6C17.6,0.7,16,0,14,0s-3.7,0.6-5.3,1.8S6.3,4.6,5.9,6.5C4.4,6.9,3.1,7.7,2,9
	S0.6,11.6,0.6,13.3z"/>
<path class="st0" d="M7.4,24.5c0,0.2,0.1,0.4,0.2,0.6c0.1,0.2,0.3,0.4,0.6,0.5c0.3,0.1,0.6,0.1,0.9-0.1s0.5-0.4,0.6-0.7l0.4-1.5
	c0.1-0.3,0.1-0.6-0.1-0.9S9.6,22,9.3,21.9c-0.3-0.1-0.6,0-0.9,0.1c-0.3,0.2-0.5,0.4-0.6,0.7l-0.3,1.4C7.4,24.3,7.4,24.5,7.4,24.5z"
	/>
<path class="st0" d="M9.2,18c0,0.2,0,0.3,0.1,0.5c0.1,0.2,0.3,0.4,0.7,0.5c0.3,0.1,0.6,0.1,0.9-0.1c0.3-0.1,0.5-0.4,0.6-0.7l0.4-1.4
	c0.1-0.3,0.1-0.6-0.1-0.9c-0.2-0.3-0.4-0.5-0.7-0.5c-0.3-0.1-0.6-0.1-0.9,0.1c-0.3,0.2-0.5,0.4-0.6,0.7l-0.4,1.4
	C9.2,17.7,9.2,17.9,9.2,18z"/>
<path class="st0" d="M10.9,28.8c0,0.2,0.1,0.5,0.2,0.7c0.1,0.2,0.3,0.4,0.6,0.5c0.2,0,0.2,0.1,0.3,0.1c0.1,0,0.3,0,0.5-0.1
	c0.3-0.1,0.5-0.4,0.6-0.8l0.4-1.5c0.1-0.3,0.1-0.6-0.1-0.9c-0.2-0.3-0.4-0.5-0.7-0.6c-0.3-0.1-0.6-0.1-0.9,0.1
	c-0.3,0.2-0.5,0.4-0.6,0.7L11,28.5C11,28.6,10.9,28.7,10.9,28.8z"/>
<path class="st0" d="M12.8,22.2c0,0.2,0.1,0.4,0.2,0.6s0.3,0.4,0.6,0.5c0.3,0.1,0.6,0.1,0.9-0.1c0.3-0.2,0.5-0.4,0.6-0.7l0.4-1.4
	c0.1-0.3,0.1-0.6-0.1-0.9c-0.2-0.3-0.4-0.5-0.7-0.6c-0.3-0.1-0.6,0-0.9,0.1c-0.3,0.2-0.5,0.4-0.6,0.7l-0.3,1.4L12.8,22.2z"/>
<path class="st0" d="M16.7,24.6c0,0.5,0.3,0.9,0.9,1c0.1,0,0.2,0,0.3,0c0.2,0,0.4,0,0.5-0.1c0.3-0.1,0.5-0.4,0.6-0.8l0.4-1.4
	c0.1-0.3,0.1-0.6-0.1-0.9c-0.2-0.3-0.4-0.4-0.7-0.5c-0.3-0.1-0.6-0.1-0.9,0.1c-0.3,0.2-0.5,0.4-0.6,0.7l-0.4,1.4c0,0,0,0.1,0,0.2
	C16.7,24.5,16.7,24.6,16.7,24.6z"/>
<path class="st0" d="M18.6,18c0,0.2,0.1,0.4,0.2,0.6c0.1,0.2,0.4,0.4,0.6,0.4c0.2,0,0.3,0.1,0.3,0.1c0.1,0,0.3,0,0.5-0.1
	c0.3-0.1,0.5-0.4,0.6-0.8l0.4-1.4c0.1-0.3,0-0.6-0.1-0.9c-0.2-0.3-0.4-0.5-0.7-0.6c-0.3-0.1-0.6-0.1-0.9,0.1
	c-0.3,0.2-0.5,0.4-0.6,0.7l-0.4,1.5C18.6,17.8,18.6,17.9,18.6,18z"/>
</svg>
