<?xml version="1.0" encoding="utf-8"?>
<!-- Generator: Adobe Illustrator 26.3.1, SVG Export Plug-In . SVG Version: 6.00 Build 0)  -->
<svg version="1.1" id="Layer_1" xmlns="http://www.w3.org/2000/svg" xmlns:xlink="http://www.w3.org/1999/xlink" x="0px" y="0px"
	 viewBox="0 0 30 30" style="enable-background:new 0 0 30 30;" xml:space="preserve">
<style type="text/css">
	.st0{fill:#FFFFFF;}
</style>
<path class="st0" d="M0.6,16.2c0,0.9,0.5,1.7,1.5,2.4c1.7,1.2,4.4,1.9,7.9,1.9c1.6,0,3-0.1,4.4-0.4c1.5-0.3,2.6-0.8,3.4-1.5
	c0.8-0.7,1.3-1.5,1.3-2.4c0-0.3,0-0.5-0.1-0.8c1.9-0.4,3.3-1.1,4.4-1.9c1.1-0.8,1.6-1.6,1.6-2.6c0-0.3,0-0.5-0.1-0.8
	c3-1.1,4.5-2.5,4.5-4.4c0-1.2-0.7-2.3-2-3C24.7,1,21,0,16,0c-2.3,0-4.4,0.3-6.2,0.7c-2.1,0.4-3.7,1.1-5,2s-1.9,1.9-1.9,3
	c0,0.7,0.3,1.3,0.7,1.9c-1.6,0.9-2.4,2-2.4,3.3c0,1.1,0.5,1.9,1.5,2.6C1.3,14.2,0.6,15.1,0.6,16.2z M1.4,22.2c0,0.9,0.5,1.7,1.7,2.3
	c1.2,0.5,2.6,0.8,4.5,0.8s3.3-0.3,4.5-0.8s1.9-1.3,1.9-2.3c0-0.4-0.1-0.7-0.4-0.9c-0.3-0.3-0.5-0.4-0.9-0.4c-0.3,0-0.5,0.1-0.8,0.3
	c-0.3,0.1-0.4,0.5-0.4,0.8c-0.3,0.3-0.8,0.4-1.5,0.5s-1.5,0.3-2.4,0.3c-1.5,0-2.6-0.3-3.6-0.7c0.4-0.1,0.4-0.4,0.5-0.7
	c0.1-0.3,0-0.7-0.3-0.8C4.1,20.3,3.8,20,3.5,20s-0.7,0-0.9,0.1C1.8,20.7,1.4,21.4,1.4,22.2z M3.1,16.2c0,0,0.1-0.1,0.3-0.3
	c0.1-0.1,0.4-0.3,0.8-0.4C4.6,15.4,5,15.3,5.5,15l0.1-0.1c2.1,0.7,4.6,1.1,7.6,1.1c1.2,0,2.4-0.1,3.4-0.3l0.4,0.3
	c-0.1,0.3-0.4,0.4-0.8,0.7c-0.5,0.3-1.3,0.5-2.5,0.8s-2.3,0.3-3.6,0.3s-2.4-0.1-3.6-0.3s-2-0.5-2.5-0.8C3.5,16.6,3.3,16.5,3.1,16.2z
	 M3.3,27.3c0,0.8,0.5,1.5,1.5,2S6.9,30,8.3,30s2.6-0.3,3.6-0.7c0.9-0.4,1.5-1.1,1.5-2c0-0.3-0.1-0.7-0.4-0.9
	C12.7,26.1,12.4,26,12,26c-0.7,0-1.1,0.3-1.2,0.9c-0.5,0.3-1.3,0.5-2.6,0.5c-1.1,0-1.9-0.1-2.5-0.5C5.4,26.3,5.1,26,4.5,26
	c-0.3,0-0.7,0.1-0.8,0.4C3.5,26.7,3.3,26.9,3.3,27.3z M3.5,10.9c0-0.1,0.1-0.3,0.3-0.4c0.3-0.4,0.9-0.8,1.9-1.2
	c2.5,1.3,6.1,2,10.5,2c2.3,0,4.4-0.3,6.4-0.7v0.1c0,0.1-0.1,0.4-0.4,0.5c-0.5,0.5-1.6,0.9-3,1.3c-1.6,0.5-3.6,0.7-6.1,0.7
	c-2.4,0-4.5-0.3-6.1-0.7c-1.6-0.4-2.5-0.9-3-1.3C3.7,11.3,3.5,11.2,3.5,10.9z M5.3,5.7c0-0.3,0.1-0.5,0.4-0.8
	c0.7-0.5,1.7-1.1,3.6-1.6c1.9-0.5,4.1-0.8,6.8-0.8s4.9,0.3,6.9,0.8c1.9,0.5,2.9,1.1,3.6,1.6C26.9,5.3,27,5.6,27,5.7
	s-0.1,0.4-0.4,0.8c-0.5,0.5-1.7,1.1-3.6,1.6c-2,0.5-4.2,0.8-6.9,0.8s-4.9-0.3-6.8-0.8c-1.9-0.5-3-1.1-3.6-1.6C5.5,6.3,5.3,6,5.3,5.7
	z"/>
</svg>
