<?xml version="1.0" encoding="utf-8"?>
<!-- Generator: Adobe Illustrator 26.3.1, SVG Export Plug-In . SVG Version: 6.00 Build 0)  -->
<svg version="1.1" id="Layer_1" xmlns="http://www.w3.org/2000/svg" xmlns:xlink="http://www.w3.org/1999/xlink" x="0px" y="0px"
	 viewBox="0 0 30 30" style="enable-background:new 0 0 30 30;" xml:space="preserve">
<style type="text/css">
	.st0{fill:#FFFFFF;}
</style>
<path class="st0" d="M4.1,15.2c0,0.7,0.4,1.3,1.1,1.8c1.3,0.9,3.3,1.4,6,1.4c1.2,0,2.3-0.1,3.3-0.3c1.1-0.2,2-0.6,2.6-1.1
	s1-1.1,1-1.8c0-0.2,0-0.4-0.1-0.6c1.4-0.3,2.5-0.8,3.3-1.4s1.2-1.2,1.2-2c0-0.2,0-0.4-0.1-0.6c2.3-0.8,3.4-1.9,3.4-3.3
	c0-0.9-0.5-1.7-1.5-2.3c-2-1.3-4.8-2-8.6-2C14,3,12.4,3.2,11,3.5C9.4,3.8,8.2,4.3,7.2,5S5.8,6.4,5.8,7.3c0,0.5,0.2,1,0.5,1.4
	c-1.2,0.7-1.8,1.5-1.8,2.5c0,0.8,0.4,1.4,1.1,2C4.6,13.7,4.1,14.4,4.1,15.2z M4.7,19.7c0,0.7,0.4,1.3,1.3,1.7s2,0.6,3.4,0.6
	c1.4,0,2.5-0.2,3.4-0.6s1.4-1,1.4-1.7c0-0.3-0.1-0.5-0.3-0.7s-0.4-0.3-0.7-0.3c-0.2,0-0.4,0.1-0.6,0.2s-0.3,0.4-0.3,0.6
	c-0.2,0.2-0.6,0.3-1.1,0.4s-1.1,0.2-1.8,0.2c-1.1,0-2-0.2-2.7-0.5C7,19.5,7,19.3,7.1,19.1s0-0.5-0.2-0.6c-0.2-0.2-0.4-0.4-0.6-0.4
	s-0.5,0-0.7,0.1C5,18.6,4.7,19.1,4.7,19.7z M6,15.2c0,0,0.1-0.1,0.2-0.2c0.1-0.1,0.3-0.2,0.6-0.3s0.6-0.2,1-0.4l0.1-0.1
	c1.6,0.5,3.5,0.8,5.7,0.8c0.9,0,1.8-0.1,2.6-0.2l0.3,0.2c-0.1,0.2-0.3,0.3-0.6,0.5c-0.4,0.2-1,0.4-1.9,0.6s-1.7,0.2-2.7,0.2
	s-1.8-0.1-2.7-0.2s-1.5-0.4-1.9-0.6C6.3,15.5,6.1,15.4,6,15.2z M6.1,23.6c0,0.6,0.4,1.1,1.1,1.5s1.6,0.5,2.7,0.5
	c1.1,0,2-0.2,2.7-0.5s1.1-0.8,1.1-1.5c0-0.2-0.1-0.5-0.3-0.7s-0.4-0.3-0.7-0.3c-0.5,0-0.8,0.2-0.9,0.7c-0.4,0.2-1,0.4-2,0.4
	c-0.8,0-1.4-0.1-1.9-0.4c-0.2-0.5-0.4-0.7-0.9-0.7c-0.2,0-0.5,0.1-0.6,0.3S6.1,23.3,6.1,23.6z M6.3,11.2c0-0.1,0.1-0.2,0.2-0.3
	c0.2-0.3,0.7-0.6,1.4-0.9c1.9,1,4.6,1.5,7.9,1.5c1.7,0,3.3-0.2,4.8-0.5v0.1c0,0.1-0.1,0.3-0.3,0.4c-0.4,0.4-1.2,0.7-2.3,1
	c-1.2,0.4-2.7,0.5-4.6,0.5c-1.8,0-3.4-0.2-4.6-0.5c-1.2-0.3-1.9-0.7-2.3-1C6.4,11.5,6.3,11.4,6.3,11.2z M7.6,7.3
	c0-0.2,0.1-0.4,0.3-0.6c0.5-0.4,1.3-0.8,2.7-1.2c1.4-0.4,3.1-0.6,5.1-0.6c2,0,3.7,0.2,5.2,0.6c1.4,0.4,2.2,0.8,2.7,1.2
	C23.9,7,24,7.2,24,7.3s-0.1,0.3-0.3,0.6c-0.4,0.4-1.3,0.8-2.7,1.2c-1.5,0.4-3.2,0.6-5.2,0.6c-2,0-3.7-0.2-5.1-0.6
	C9.3,8.7,8.4,8.3,8,7.9C7.8,7.7,7.6,7.5,7.6,7.3z"/>
</svg>
